HIERARCHY
ROOT root
{
	OFFSET	0	13.1	24.9
	CHANNELS 6  Xposition Yposition Zposition Xrotation Yrotation Zrotation
	JOINT spine_1
	{
		OFFSET	0	9.99999	0
		CHANNELS 3  Xrotation Yrotation Zrotation
		JOINT spine_2
		{
			OFFSET	0	112	-10
			CHANNELS 3  Xrotation Yrotation Zrotation
			JOINT spine_3
			{
				OFFSET	0	206.5	19.3
				CHANNELS 3  Xrotation Yrotation Zrotation
				JOINT spine_4
				{
					OFFSET	0	110.4	14.6
					CHANNELS 3  Xrotation Yrotation Zrotation
					JOINT neck_1
					{
						OFFSET	0	71.8	-50.3
						CHANNELS 3  Xrotation Yrotation Zrotation
						JOINT neck_2
						{
							OFFSET	0	86.2	-25.8
							CHANNELS 3  Xrotation Yrotation Zrotation
							JOINT head_ee
							{
								OFFSET	0	179.8	-8.7
								CHANNELS 3  Xrotation Yrotation Zrotation
								End Site
								{
									OFFSET	1	0	0
								}
							}
						}
					}
					JOINT left_clavicle
					{
						OFFSET	-43.2	22.4	-70.8
						CHANNELS 3  Xrotation Yrotation Zrotation
						JOINT left_shoulder
						{
							OFFSET	-93.9	-5.79999	48.7
							CHANNELS 3  Xrotation Yrotation Zrotation
							JOINT left_elbow
							{
								OFFSET	-291.4	-30.8	15.2
								CHANNELS 3  Xrotation Yrotation Zrotation
								JOINT left_lowarm_twist
								{
									OFFSET	-110.7	-3.89999	13.6
									CHANNELS 3  Xrotation Yrotation Zrotation
									JOINT left_hand
									{
										OFFSET	-110.7	-3.89999	13.6
										CHANNELS 3  Xrotation Yrotation Zrotation
										JOINT left_ee
										{
											OFFSET	-80.8	-5.10001	12.1
											CHANNELS 3  Xrotation Yrotation Zrotation
											End Site
											{
												OFFSET	1	0	0
											}
										}
									}
								}
							}
						}
					}
					JOINT right_clavicle
					{
						OFFSET	43.2	22.4	-70.8
						CHANNELS 3  Xrotation Yrotation Zrotation
						JOINT right_shoulder
						{
							OFFSET	93.9	-5.79999	48.7
							CHANNELS 3  Xrotation Yrotation Zrotation
							JOINT right_elbow
							{
								OFFSET	291.4	-30.8	15.2
								CHANNELS 3  Xrotation Yrotation Zrotation
								JOINT right_lowarm_twist
								{
									OFFSET	110.7	-3.89999	13.6
									CHANNELS 3  Xrotation Yrotation Zrotation
									JOINT right_hand
									{
										OFFSET	110.7	-3.89999	13.6
										CHANNELS 3  Xrotation Yrotation Zrotation
										JOINT right_ee
										{
											OFFSET	80.8	-5.10001	12.1
											CHANNELS 3  Xrotation Yrotation Zrotation
											End Site
											{
												OFFSET	1	0	0
											}
										}
									}
								}
							}
						}
					}
				}
			}
		}
	}
	JOINT left_hip
	{
		OFFSET	-82.8	-127.5	0.300001
		CHANNELS 3  Xrotation Yrotation Zrotation
		JOINT left_knee
		{
			OFFSET	-28.2	-396.7	2.2
			CHANNELS 3  Xrotation Yrotation Zrotation
			JOINT left_ankle
			{
				OFFSET	-11.7	-411.3	35.4
				CHANNELS 3  Xrotation Yrotation Zrotation
				JOINT left_toes
				{
					OFFSET	0	-60	-88.6
					CHANNELS 3  Xrotation Yrotation Zrotation
					JOINT left_foot_ee
					{
						OFFSET	-22.5	-16.5	-42.2
						CHANNELS 3  Xrotation Yrotation Zrotation
						End Site
						{
							OFFSET	1	0	0
						}
					}
				}
			}
		}
	}
	JOINT right_hip
	{
		OFFSET	82.8	-127.5	0.300001
		CHANNELS 3  Xrotation Yrotation Zrotation
		JOINT right_knee
		{
			OFFSET	28.2	-396.7	2.2
			CHANNELS 3  Xrotation Yrotation Zrotation
			JOINT right_ankle
			{
				OFFSET	11.7	-411.3	35.4
				CHANNELS 3  Xrotation Yrotation Zrotation
				JOINT right_toes
				{
					OFFSET	0	-60	-88.6
					CHANNELS 3  Xrotation Yrotation Zrotation
					JOINT right_foot_ee
					{
						OFFSET	22.5	-16.5	-42.2
						CHANNELS 3  Xrotation Yrotation Zrotation
						End Site
						{
							OFFSET	1	0	0
						}
					}
				}
			}
		}
	}
}
MOTION
Frames: 13
Frame Time: 0.02
2485.29324125 755.679 -1551.53854307 19.9998179478 59.6869684253 -31.1240732763 -2.51887 0.964073 6.63243 -2.49458 0.541045 6.68004 -2.40264 -1.15669 6.60169 -2.46338 -0.102002 6.70105 0.543571 17.8399 -8.2382 2.3749 38.3854 -7.7718 -0.0 0.0 -0.0 -1.40787 18.1708 -0.0112732 -25.9583 -14.7506 56.6307 0.91252 -24.3243 0.196667 6.46188 0.182443 -0.804823 1.00003 5.42423 8.85955 -0.0 0.0 -0.0 13.1449 24.5464 -26.1762 -6.24671 40.6823 -62.0742 1.54701 37.4618 -0.524592 -62.5516 5.60168 -5.1735 -5.18651 -16.2009 26.2789 0.0 0.0 0.0 -19.0085 34.7091 5.7199 -18.7992 0.307995 2.85553 -1.56678 4.18407 0.230758 -6.51487 0.0 0.0 -0.0 0.0 -0.0 -9.88251 29.4 4.72468 -4.68212 -0.164262 -0.699591 22.3065 -2.06603 3.02326 -7.32515 0.0 0.0 0.0 0.0 0.0 
2481.33489097 763.615 -1541.3718837 18.2403722726 60.1270854076 -28.8667394179 -2.71854 0.859219 6.70761 -2.69364 0.431649 6.74844 -2.61261 -1.30504 6.63562 -2.67391 -0.243189 6.75782 1.58523 17.1704 -9.22166 3.66294 37.858 -9.34081 -0.0 0.0 -0.0 -0.99796 17.9795 0.584744 -25.5434 -14.7782 58.0194 0.830809 -22.3699 0.16428 6.10307 0.174703 -0.75964 0.989337 5.96091 8.99786 -0.0 0.0 -0.0 12.7853 24.1265 -25.3871 -5.11014 40.7998 -62.2333 1.68937 39.9214 -0.613608 -63.224 5.68621 -5.19018 -5.60414 -17.6862 28.0981 0.0 0.0 0.0 -18.6147 36.2475 5.94968 -12.4527 0.30921 1.88228 -2.78109 4.8006 0.410387 -7.60951 0.0 0.0 -0.0 0.0 -0.0 -7.29913 27.7992 3.72736 -6.43907 -0.211057 -0.965151 21.7357 -4.90718 2.94543 -7.1418 0.0 0.0 0.0 0.0 0.0 
2481.54715823 758.947 -1543.58861233 17.0819420773 58.4266530157 -27.2250340697 -2.7006 0.747314 6.7386 -2.67541 0.318009 6.77229 -2.60814 -1.42126 6.62975 -2.66923 -0.358893 6.77026 -0.475192 16.5335 -8.95252 1.08088 36.7366 -8.23642 -0.0 0.0 -0.0 -0.474759 17.7035 1.34701 -26.5332 -15.1062 59.1809 0.722411 -19.6903 0.12537 4.96614 0.148312 -0.616807 0.969982 6.67832 9.14818 -0.0 0.0 -0.0 12.6003 23.5874 -25.0138 -3.47729 41.025 -61.7957 1.85517 42.5787 -0.722955 -63.575 5.7304 -5.19849 -5.88772 -20.1674 28.1166 0.0 0.0 0.0 -17.9786 37.7149 6.82044 -9.07691 0.265966 1.36618 -1.5603 5.17549 0.229536 -7.79349 0.0 0.0 -0.0 0.0 -0.0 -5.48155 27.0798 2.94221 -7.40329 -0.23327 -1.11145 19.0536 -8.13586 2.61304 -7.66188 0.0 0.0 0.0 0.0 0.0 
2488.63589644 761.289 -1550.95728457 13.6946796773 54.2354512102 -23.1962136064 -2.95693 0.693794 6.63997 -2.93247 0.270829 6.67049 -2.87078 -1.47098 6.5126 -2.92965 -0.426369 6.66239 -1.55154 16.2928 -8.62444 -0.259739 36.1434 -7.46913 -0.0 0.0 -0.0 0.0756935 16.3933 2.04293 -26.3112 -16.2853 58.8586 0.732324 -19.9393 0.12873 4.42772 0.134826 -0.549351 0.960631 7.15283 9.26979 -0.0 0.0 -0.0 12.548 23.4177 -24.9098 -2.97528 41.1404 -61.279 1.92103 43.5754 -0.767937 -63.7887 5.75734 -5.20342 -5.99763 -21.4214 27.845 0.0 0.0 0.0 -11.2692 38.9624 3.73362 -4.24901 0.151476 0.634353 -0.596071 5.02172 0.0875078 -7.53823 0.0 0.0 -0.0 0.0 -0.0 -4.63968 26.7409 2.64821 -7.80636 -0.241824 -1.17271 18.0133 -8.35919 2.48189 -7.81234 0.0 0.0 0.0 0.0 0.0 
2478.48184317 763.657 -1565.48431238 9.65255013452 50.4473346267 -18.1330184106 -3.03919 0.730024 6.56418 -3.01529 0.311778 6.59714 -2.94915 -1.42085 6.45048 -3.00695 -0.386609 6.59319 -0.441998 15.6439 -9.01196 1.0083 35.1932 -8.35956 -0.0 0.0 -0.0 0.492229 14.847 2.53734 -25.6392 -17.7996 57.8099 0.794625 -21.4862 0.150767 3.58773 0.11252 -0.444371 0.797456 8.05231 8.54408 -0.0 0.0 -0.0 12.4147 23.8055 -24.5646 -4.9001 41.4024 -60.2203 1.92649 43.6566 -0.771707 -63.935 5.77579 -5.20673 -5.91445 -22.1712 26.6679 0.0 0.0 0.0 -7.35183 39.3657 1.30192 -6.13161 0.203457 0.91858 -2.57418 3.66917 0.380247 -5.44811 0.0 0.0 -0.0 0.0 -0.0 -3.8279 26.6164 2.43233 -7.5713 -0.236888 -1.13698 17.4599 -3.54008 2.41629 -8.38025 0.0 0.0 0.0 0.0 0.0 
2478.31660957 763.657 -1564.90136644 9.67363493434 50.5494192186 -18.1603442425 -3.03919 0.730024 6.56418 -3.01529 0.311778 6.59714 -2.94915 -1.42085 6.45048 -3.00695 -0.386609 6.59319 -0.441998 15.6439 -9.01196 1.0083 35.1932 -8.35956 -0.0 0.0 -0.0 0.492229 14.847 2.53734 -25.6392 -17.7996 57.8099 0.794625 -21.4862 0.150767 3.58773 0.11252 -0.444371 0.797456 8.05231 8.54408 -0.0 0.0 -0.0 12.4147 23.8055 -24.5646 -4.9001 41.4024 -60.2203 1.92649 43.6566 -0.771707 -63.935 5.77579 -5.20673 -5.91445 -22.1712 26.6679 0.0 0.0 0.0 -7.35183 39.3657 1.30192 -6.13161 0.203457 0.91858 -2.57418 3.66917 0.380247 -5.44811 0.0 0.0 -0.0 0.0 -0.0 -3.8279 26.6164 2.43233 -7.5713 -0.236888 -1.13698 17.4599 -3.54008 2.41629 -8.38025 0.0 0.0 0.0 0.0 0.0 
2473.98795354 774.391 -1568.38532073 8.84128805741 49.0935527032 -17.1681599154 -3.01824 0.739274 6.53342 -2.99457 0.322954 6.56703 -2.92765 -1.39966 6.42487 -2.98501 -0.369699 6.56458 0.766011 15.2615 -9.37754 2.40976 34.7034 -9.2318 -0.0 0.0 -0.0 0.447308 14.4148 2.42042 -25.4192 -18.0477 57.2589 0.803123 -21.6947 0.153894 3.19641 0.101603 -0.395575 0.687547 8.47745 7.98981 -0.0 0.0 -0.0 12.3549 24.03 -24.4047 -6.64802 41.4779 -59.7942 1.88682 43.0618 -0.744472 -63.9594 5.77887 -5.20728 -5.80868 -22.2558 25.8959 0.0 0.0 0.0 -6.87832 39.3105 0.733097 -9.35426 0.270665 1.40848 -4.14584 2.97525 0.615088 -4.18356 0.0 0.0 -0.0 0.0 -0.0 -3.56188 26.8051 2.55493 -7.28508 -0.230679 -1.0935 17.3972 -0.711755 2.41913 -8.77617 0.0 0.0 0.0 0.0 0.0 
2472.9747585 774.391 -1564.8111993 8.95415042584 49.7113890991 -17.3167978643 -3.01824 0.739274 6.53342 -2.99457 0.322954 6.56703 -2.92765 -1.39966 6.42487 -2.98501 -0.369699 6.56458 0.766011 15.2615 -9.37754 2.40976 34.7034 -9.2318 -0.0 0.0 -0.0 0.447308 14.4148 2.42042 -25.4192 -18.0477 57.2589 0.803123 -21.6947 0.153894 3.19641 0.101603 -0.395575 0.687547 8.47745 7.98981 -0.0 0.0 -0.0 12.3549 24.03 -24.4047 -6.64802 41.4779 -59.7942 1.88682 43.0618 -0.744472 -63.9594 5.77887 -5.20728 -5.80868 -22.2558 25.8959 0.0 0.0 0.0 -6.87832 39.3105 0.733097 -9.35426 0.270665 1.40848 -4.14584 2.97525 0.615088 -4.18356 0.0 0.0 -0.0 0.0 -0.0 -3.56188 26.8051 2.55493 -7.28508 -0.230679 -1.0935 17.3972 -0.711755 2.41913 -8.77617 0.0 0.0 0.0 0.0 0.0 
2471.4680114 763.62 -1567.63065912 8.27980064689 48.2897539995 -16.7103834062 -2.996 0.835123 6.45806 -2.97292 0.423374 6.49789 -2.8952 -1.28033 6.38503 -2.95195 -0.258101 6.50651 1.68757 14.9936 -9.09649 3.38339 33.9209 -9.23302 -0.0 0.0 -0.0 0.485145 13.8514 2.42344 -24.6871 -18.4495 56.2909 0.781506 -21.1631 0.145997 2.65378 0.0859138 -0.328037 0.502629 9.5032 7.18642 -0.0 0.0 -0.0 12.8091 24.7363 -25.3782 -7.18367 41.8582 -60.0116 1.84916 42.4862 -0.718897 -63.9809 5.78158 -5.20777 -5.39297 -22.1774 23.2416 0.0 0.0 0.0 -6.52285 39.2124 -0.254772 -11.5993 0.301152 1.75159 -5.11927 2.51124 0.761576 -3.48738 0.0 0.0 -0.0 0.0 -0.0 -3.2608 26.9413 2.70759 -7.08284 -0.226161 -1.06279 17.5676 1.60967 2.45446 -8.70317 0.0 0.0 0.0 0.0 0.0 
2472.18874138 763.62 -1570.12468102 8.21046457375 47.8600540501 -16.6171927986 -2.996 0.835123 6.45806 -2.97292 0.423374 6.49789 -2.8952 -1.28033 6.38503 -2.95195 -0.258101 6.50651 1.68757 14.9936 -9.09649 3.38339 33.9209 -9.23302 -0.0 0.0 -0.0 0.485145 13.8514 2.42344 -24.6871 -18.4495 56.2909 0.781506 -21.1631 0.145997 2.65378 0.0859138 -0.328037 0.502629 9.5032 7.18642 -0.0 0.0 -0.0 12.8091 24.7363 -25.3782 -7.18367 41.8582 -60.0116 1.84916 42.4862 -0.718897 -63.9809 5.78158 -5.20777 -5.39297 -22.1774 23.2416 0.0 0.0 0.0 -6.52285 39.2124 -0.254772 -11.5993 0.301152 1.75159 -5.11927 2.51124 0.761576 -3.48738 0.0 0.0 -0.0 0.0 -0.0 -3.2608 26.9413 2.70759 -7.08284 -0.226161 -1.06279 17.5676 1.60967 2.45446 -8.70317 0.0 0.0 0.0 0.0 0.0 
2472.05013443 763.62 -1569.65050338 8.22353405874 47.9418295291 -16.6348069672 -2.996 0.835123 6.45806 -2.97292 0.423374 6.49789 -2.8952 -1.28033 6.38503 -2.95195 -0.258101 6.50651 1.68757 14.9936 -9.09649 3.38339 33.9209 -9.23302 -0.0 0.0 -0.0 0.485145 13.8514 2.42344 -24.6871 -18.4495 56.2909 0.781506 -21.1631 0.145997 2.65378 0.0859138 -0.328037 0.502629 9.5032 7.18642 -0.0 0.0 -0.0 12.8091 24.7363 -25.3782 -7.18367 41.8582 -60.0116 1.84916 42.4862 -0.718897 -63.9809 5.78158 -5.20777 -5.39297 -22.1774 23.2416 0.0 0.0 0.0 -6.52285 39.2124 -0.254772 -11.5993 0.301152 1.75159 -5.11927 2.51124 0.761576 -3.48738 0.0 0.0 -0.0 0.0 -0.0 -3.2608 26.9413 2.70759 -7.08284 -0.226161 -1.06279 17.5676 1.60967 2.45446 -8.70317 0.0 0.0 0.0 0.0 0.0 
2466.55828874 762.19 -1568.66965266 8.3982035487 47.4795066376 -16.817091895 -3.00286 0.927056 6.45676 -2.97983 0.515206 6.5024 -2.89111 -1.19183 6.41335 -2.94842 -0.166247 6.52059 1.99547 14.8527 -8.46062 3.60961 33.1252 -8.59296 -0.0 0.0 -0.0 0.410519 13.6976 2.28561 -24.2602 -18.6623 55.5085 0.764087 -20.7319 0.139769 1.81284 0.0603368 -0.223669 0.358267 10.4017 6.60586 -0.0 0.0 -0.0 13.1751 25.3542 -26.1571 -7.69965 41.8966 -59.8669 1.67961 39.7582 -0.607354 -63.55 5.72726 -5.19791 -5.00909 -21.8426 21.033 0.0 0.0 0.0 -6.48161 40.1059 -0.516176 -13.1614 0.314422 1.9909 -6.1906 2.22978 0.923263 -3.28174 0.0 0.0 -0.0 0.0 -0.0 -2.75104 26.7564 1.9204 -6.48349 -0.212135 -0.971883 17.6551 3.45428 2.47949 -8.69767 0.0 0.0 0.0 0.0 0.0 
2465.67783825 762.19 -1565.5106987 8.48556139551 48.0142160937 -16.935112821 -3.00286 0.927056 6.45676 -2.97983 0.515206 6.5024 -2.89111 -1.19183 6.41335 -2.94842 -0.166247 6.52059 1.99547 14.8527 -8.46062 3.60961 33.1252 -8.59296 -0.0 0.0 -0.0 0.410519 13.6976 2.28561 -24.2602 -18.6623 55.5085 0.764087 -20.7319 0.139769 1.81284 0.0603368 -0.223669 0.358267 10.4017 6.60586 -0.0 0.0 -0.0 13.1751 25.3542 -26.1571 -7.69965 41.8966 -59.8669 1.67961 39.7582 -0.607354 -63.55 5.72726 -5.19791 -5.00909 -21.8426 21.033 0.0 0.0 0.0 -6.48161 40.1059 -0.516176 -13.1614 0.314422 1.9909 -6.1906 2.22978 0.923263 -3.28174 0.0 0.0 -0.0 0.0 -0.0 -2.75104 26.7564 1.9204 -6.48349 -0.212135 -0.971883 17.6551 3.45428 2.47949 -8.69767 0.0 0.0 0.0 0.0 0.0 
